:SAMPLES-PER-SECOND 30
:FULLY-SPECIFIED
:DEGREES
128
root  42.5228 14.3258 -2.30942 142.113 88.8267 155.678
RightUpLeg  -73.3797 -5.69504 6.09499
RightLeg  145.669 11.6392 0.812492
RightFoot  -37.7612 -0.554722 -2.57717
RightToes  2.21189e-009 -3.18055e-015 8.94531e-016
Spine  51.8791 -1.88847 0.072184
Spine1  0.021511 -1.77616 0.729979
HEad  -37.3383 0.601397 4.19008
LeftShoulder1  0 0 -2.47967e-037
LeftArm  -11.1868 -48.92 -65.0216
LeftForeArm  -139.107 -49.0206 169.478
LeftHand  0.361938 5.17772 16.5959
RightShoulder  -2.48481e-017 0 -8.08114e-019
RightArm  -6.32767 38.0062 73.0435
RightForeArm  -89.8068 47.9125 -152.341
RightHand  3.14804 -14.752 -22.1426
LeftUpLeg  -81.1164 0.0159195 -0.164485
LeftLeg  141.553 -13.4844 -1.75505
LeftFoot  -30.8387 -0.625381 -3.5013
LeftToes  -2.77942e-009 -2.0471e-010 1.20669e-012
129
root  43.6424 15.3328 -2.19976 116.867 88.5128 128.356
RightUpLeg  -69.2411 -5.78504 5.08647
RightLeg  144.233 10.7305 1.39803
RightFoot  -37.6255 -0.0870262 -0.456463
RightToes  2.21189e-009 -3.18055e-015 8.94531e-016
Spine  50.2391 -1.55146 -0.817715
Spine1  -1.04321 -1.85172 0.71377
HEad  -38.1032 1.35701 4.60564
LeftShoulder1  0 0 -2.47967e-037
LeftArm  -10.6973 -49.6071 -64.8522
LeftForeArm  -138.204 -47.4983 170.493
LeftHand  0.312307 5.02039 16.8389
RightShoulder  -2.48481e-017 0 -8.08114e-019
RightArm  -6.97896 38.9405 72.3159
RightForeArm  -89.493 46.828 -153.85
RightHand  3.35211 -15.0113 -23.6518
LeftUpLeg  -76.6589 -0.18633 0.35627
LeftLeg  140.612 -12.8027 -2.2744
LeftFoot  -30.859 -1.09852 -6.51851
LeftToes  -2.77942e-009 -2.0471e-010 1.20669e-012
130
root  44.802 17.2018 -2.01906 95.7981 88.191 104.506
RightUpLeg  -63.8483 -5.47265 4.3513
RightLeg  139.321 10.3416 1.75425
RightFoot  -37.1294 0.227149 0.999636
RightToes  2.21189e-009 -3.18055e-015 8.94531e-016
Spine  48.1727 -0.932888 -2.07996
Spine1  -2.14547 -1.82355 0.957309
HEad  -37.9859 1.98257 4.64906
LeftShoulder1  0 0 -2.47967e-037
LeftArm  -11.168 -49.1582 -64.0292
LeftForeArm  -139.246 -45.9637 171.555
LeftHand  0.214587 4.79925 17.9728
RightShoulder  -2.48481e-017 0 -8.08114e-019
RightArm  -6.31423 39.0635 72.1977
RightForeArm  -91.2254 45.751 -155.378
RightHand  3.57291 -15.4499 -24.5479
LeftUpLeg  -70.3869 -0.147958 0.652502
LeftLeg  136.242 -12.6829 -2.37992
LeftFoot  -30.6345 -1.53038 -9.4667
LeftToes  -2.77942e-009 -2.0471e-010 1.20669e-012
131
root  46.2128 19.2814 -1.78804 77.9231 87.9733 84.234
RightUpLeg  -57.9335 -5.3985 4.18276
RightLeg  133.065 10.4546 1.67756
RightFoot  -35.3184 0.433262 2.14838
RightToes  2.21189e-009 -3.18055e-015 8.94531e-016
Spine  45.7535 -0.321127 -3.20282
Spine1  -3.71087 -1.75363 1.33076
HEad  -34.7218 2.10377 5.38822
LeftShoulder1  0 0 -2.47967e-037
LeftArm  -12.2191 -47.9764 -62.9302
LeftForeArm  -139.841 -46.2266 171.435
LeftHand  0.0937417 4.47047 18.9138
RightShoulder  -2.48481e-017 0 -8.08114e-019
RightArm  -5.78482 37.576 72.1367
RightForeArm  -91.3297 45.8941 -155.207
RightHand  3.49638 -15.4107 -23.8063
LeftUpLeg  -63.8666 -0.00684434 1.11712
LeftLeg  130.563 -13.3478 -1.61213
LeftFoot  -28.6036 -1.74455 -12.4037
LeftToes  -2.77942e-009 -2.0471e-010 1.20669e-012
132
root  47.8365 21.3018 -1.55824 56.3477 88.3334 60.833
RightUpLeg  -52.957 -5.50775 4.4972
RightLeg  126.97 10.516 1.78599
RightFoot  -29.2845 0.490205 3.40676
RightToes  2.21189e-009 -3.18055e-015 8.94531e-016
Spine  42.434 -0.381926 -3.19284
Spine1  -4.51331 -1.75974 1.09491
HEad  -28.2999 2.10203 5.89485
LeftShoulder1  0 0 -2.47967e-037
LeftArm  -13.1395 -46.3644 -61.4227
LeftForeArm  -140.188 -47.1253 170.87
LeftHand  0.273303 4.98513 17.9072
RightShoulder  -2.48481e-017 0 -8.08114e-019
RightArm  -5.13684 35.1446 72.4957
RightForeArm  -90.6557 46.3838 -154.514
RightHand  3.16514 -14.8027 -22.1663
LeftUpLeg  -58.4519 -0.0683148 2.26674
LeftLeg  124.82 -14.4873 0.0783923
LeftFoot  -22.8303 -1.23842 -14.405
LeftToes  -2.77942e-009 -2.0471e-010 1.20669e-012
133
root  49.4422 23.0051 -1.34523 28.6245 88.4318 32.3198
RightUpLeg  -50.7235 -5.30281 4.45085
RightLeg  122.651 10.0294 2.55272
RightFoot  -15.5377 0.141206 3.85193
RightToes  2.21189e-009 -3.18055e-015 8.94531e-016
Spine  39.5818 -0.696831 -2.52553
Spine1  -4.2287 -1.64074 0.00934983
HEad  -22.35 1.72772 5.47447
LeftShoulder1  0 0 -2.47967e-037
LeftArm  -13.2966 -44.8663 -60.058
LeftForeArm  -140.562 -47.3107 170.772
LeftHand  0.390018 5.30993 17.1545
RightShoulder  -2.48481e-017 0 -8.08114e-019
RightArm  -4.78472 33.516 72.2337
RightForeArm  -94.3833 46.1207 -155.12
RightHand  3.09338 -14.733 -21.5357
LeftUpLeg  -55.2232 -0.453262 3.81958
LeftLeg  120.371 -15.184 1.56904
LeftFoot  -11.2261 0.246174 -14.1682
LeftToes  -2.77942e-009 -2.0471e-010 1.20669e-012
134
root  50.8526 24.2384 -1.13696 12.0194 87.963 15.7615
RightUpLeg  -52.1101 -4.70987 3.9614
RightLeg  120.428 9.88415 2.90224
RightFoot  4.37067 -1.14653 6.48371
RightToes  2.21189e-009 -3.18055e-015 8.94531e-016
Spine  38.5546 -0.762198 -2.36008
Spine1  -3.46893 -1.41188 -1.03036
HEad  -20.3937 1.81419 4.81149
LeftShoulder1  0 0 -2.47967e-037
LeftArm  -13.9642 -44.2156 -58.1005
LeftForeArm  -141.519 -46.7496 171.213
LeftHand  0.324 5.13975 17.8218
RightShoulder  -2.48481e-017 0 -8.08114e-019
RightArm  -5.39759 33.5951 70.8705
RightForeArm  -96.7631 45.4548 -156.134
RightHand  3.10864 -14.745 -21.6818
LeftUpLeg  -54.464 -0.536976 4.70716
LeftLeg  117.566 -15.5357 2.63522
LeftFoot  4.70826 1.55633 -10.4501
LeftToes  -2.77942e-009 -2.0471e-010 1.20669e-012
135
root  52.1227 25.2381 -0.939243 5.98132 87.6704 9.40997
RightUpLeg  -55.5096 -4.72526 3.78707
RightLeg  119.266 9.74069 3.24538
RightFoot  9.9385 -1.29859 6.09967
RightToes  2.21189e-009 -3.18055e-015 8.94531e-016
Spine  38.9844 -0.843124 -2.20447
Spine1  -3.74629 -1.30156 -1.2419
HEad  -19.847 2.20744 4.41328
LeftShoulder1  0 0 -2.47967e-037
LeftArm  -14.6008 -43.6711 -57.2734
LeftForeArm  -141.019 -46.4494 171.37
LeftHand  0.292609 5.0189 17.6204
RightShoulder  -2.48481e-017 0 -8.08114e-019
RightArm  -6.25297 34.0948 69.5986
RightForeArm  -96.8659 45.1602 -156.504
RightHand  3.04959 -14.5965 -21.4996
LeftUpLeg  -56.0709 -0.426035 4.88713
LeftLeg  116.089 -15.2331 2.35532
LeftFoot  9.72196 1.0282 -4.3031
LeftToes  -2.77942e-009 -2.0471e-010 1.20669e-012
136
root  53.3314 26.2228 -0.722267 3.62122 87.6469 6.09048
RightUpLeg  -60.0167 -5.40652 4.09604
RightLeg  116.63 10.111 2.71596
RightFoot  2.67953 -0.334002 2.50185
RightToes  2.21189e-009 -3.18055e-015 8.94531e-016
Spine  40.1262 -1.00432 -1.87211
Spine1  -4.8837 -1.16831 -1.52584
HEad  -19.2808 2.47157 4.46511
LeftShoulder1  0 0 -2.47967e-037
LeftArm  -14.4295 -43.2063 -58.2662
LeftForeArm  -139.917 -46.7927 171.07
LeftHand  0.333559 5.08668 16.7016
RightShoulder  -2.48481e-017 0 -8.08114e-019
RightArm  -6.84212 34.1484 68.98
RightForeArm  -96.7533 45.4554 -156.132
RightHand  3.01858 -14.6135 -21.0373
LeftUpLeg  -59.3308 0.332565 4.13931
LeftLeg  113.967 -14.6793 1.68925
LeftFoot  3.22129 0.19166 -1.39217
LeftToes  -2.77942e-009 -2.0471e-010 1.20669e-012
137
root  54.4334 27.0642 -0.476797 4.47958 87.9053 5.93881
RightUpLeg  -64.9214 -6.40226 4.53211
RightLeg  111.463 10.6499 1.84023
RightFoot  -2.12475 -0.209547 2.26559
RightToes  2.21189e-009 -3.18055e-015 8.94531e-016
Spine  41.736 -1.06415 -1.91666
Spine1  -5.70018 -1.09 -1.42079
HEad  -19.7852 2.78445 4.35077
LeftShoulder1  0 0 -2.47967e-037
LeftArm  -14.274 -43.2359 -59.5427
LeftForeArm  -139.494 -47.2575 170.733
LeftHand  0.343646 5.10399 16.4798
RightShoulder  -2.48481e-017 0 -8.08114e-019
RightArm  -6.64101 34.271 69.2251
RightForeArm  -95.7329 45.8718 -155.533
RightHand  3.03527 -14.6345 -21.1727
LeftUpLeg  -63.1486 1.7516 2.2416
LeftLeg  109.817 -14.3058 1.56091
LeftFoot  -2.88387 0.206727 -2.34839
LeftToes  -2.77942e-009 -2.0471e-010 1.20669e-012
138
root  55.4447 27.5792 -0.250598 -1.67854 88.2802 -1.09521
RightUpLeg  -68.9861 -7.47842 5.33903
RightLeg  105.236 10.3185 3.47075
RightFoot  -8.10391 -0.115433 2.52991
RightToes  2.21189e-009 -3.18055e-015 8.94531e-016
Spine  43.8318 -1.38354 -1.57142
Spine1  -6.32707 -1.07156 -1.64445
HEad  -20.6022 2.94235 4.458
LeftShoulder1  0 0 -2.47967e-037
LeftArm  -13.7904 -43.3455 -61.0043
LeftForeArm  -139.172 -47.7068 170.406
LeftHand  0.3129 5.02678 16.8398
RightShoulder  -2.48481e-017 0 -8.08114e-019
RightArm  -6.60618 34.5017 69.4166
RightForeArm  -95.3079 46.1627 -155.128
RightHand  2.93689 -14.3154 -21.1209
LeftUpLeg  -66.8138 3.36301 -0.247341
LeftLeg  104.727 -13.7007 0.696806
LeftFoot  -9.33477 0.102267 -3.93684
LeftToes  -2.77942e-009 -2.0471e-010 1.20669e-012
139
root  56.3984 27.6914 -0.0521172 -18.7164 88.6597 -18.5132
RightUpLeg  -71.7219 -8.55242 6.05271
RightLeg  98.8315 10.0917 6.04213
RightFoot  -12.4345 -0.0119917 4.10349
RightToes  2.21189e-009 -3.18055e-015 8.94531e-016
Spine  46.573 -1.78204 -1.11048
Spine1  -6.64025 -1.04791 -1.85982
HEad  -21.9328 3.12842 4.38808
LeftShoulder1  0 0 -2.47967e-037
LeftArm  -12.7807 -43.5164 -62.6166
LeftForeArm  -139.669 -47.6722 170.466
LeftHand  0.438646 5.48309 17.2177
RightShoulder  -2.48481e-017 0 -8.08114e-019
RightArm  -6.04949 34.9954 69.5702
RightForeArm  -95.4278 46.3361 -154.91
RightHand  2.98393 -14.5099 -20.9808
LeftUpLeg  -69.733 4.68544 -2.89115
LeftLeg  99.2522 -13.3798 0.728396
LeftFoot  -14.5251 -0.0978055 -5.70863
LeftToes  -2.77942e-009 -2.0471e-010 1.20669e-012
140
root  57.3808 27.2495 0.150367 -66.9575 88.9817 -66.4818
RightUpLeg  -73.1934 -9.58332 6.23748
RightLeg  94.4033 10.4262 6.26436
RightFoot  -13.7007 0.0236406 5.315
RightToes  2.21189e-009 -3.18055e-015 8.94531e-016
Spine  49.1911 -2.11427 -0.745304
Spine1  -5.85895 -1.04294 -1.39342
HEad  -24.0815 3.13963 3.49388
LeftShoulder1  0 0 -2.47967e-037
LeftArm  -12.9344 -44.1316 -63.295
LeftForeArm  -138.433 -47.6077 170.421
LeftHand  0.364258 5.19207 16.7878
RightShoulder  -2.48481e-017 0 -8.08114e-019
RightArm  -5.56804 35.8713 69.1006
RightForeArm  -95.4988 46.3761 -154.863
RightHand  3.0917 -14.8413 -21.1084
LeftUpLeg  -71.9041 4.9588 -5.01036
LeftLeg  94.9883 -13.352 1.95593
LeftFoot  -18.2089 -0.331817 -6.64424
LeftToes  -2.77942e-009 -2.0471e-010 1.20669e-012
